<svg height="640" preserveAspectRatio="xMidYMid meet" viewBox="0 0 640 640" width="640" xmlns="http://www.w3.org/2000/svg" xmlns:xlink="http://www.w3.org/1999/xlink"><defs><path id="a" d="m508.8 172.56c7.58 0 13.72 6.14 13.72 13.72s-6.14 13.72-13.72 13.72c-7.86 0-17.74 0-25.6 0-7.58 0-13.72-6.14-13.72-13.72 0-2.74 0 2.74 0 0 0-7.58 6.14-13.72 13.72-13.72z"/><path id="b" d="m500 200c-.89-66.75-34.23-100.08-100-100s-99.11 33.41-100 100z"/><path id="c" d="m329.15 200-69.15 108c14.39 47.93 61.06 71.93 140 72s112.28-59.93 100-180z"/><path id="d" d="m440 281c0 44.71-38.77 81-86.52 81-47.76 0-86.53-36.29-86.53-81s38.77-81 86.53-81c47.75 0 86.52 36.29 86.52 81z"/><path id="e" d="m352.32 200-100 180h-52.32l100-180z"/></defs><use fill="#506050" xlink:href="#a"/><use fill="none" xlink:href="#a"/><use fill="#70a070" xlink:href="#b"/><use fill="none" xlink:href="#b"/><use fill="#70a070" xlink:href="#c"/><use fill="none" xlink:href="#c"/><use fill="#506050" xlink:href="#d"/><use fill="none" xlink:href="#d"/><use fill="#506050" xlink:href="#e"/><use fill="none" xlink:href="#e"/><path d="m468 166.68c0 7.07-5.74 12.81-12.8 12.81-7.07 0-12.81-5.74-12.81-12.81 0-7.06 5.74-12.8 12.81-12.8 7.06 0 12.8 5.74 12.8 12.8z" fill="#fff"/></svg>